<mxfile host="app.diagrams.net" modified="2021-03-27T15:33:34.416Z" agent="5.0 (X11)" etag="6S30vLMrE9A58eaaKcaw" version="14.5.3" type="github">
  <diagram id="2fA6o0RHU7N9C4x3E4le" name="Page-1">
    <mxGraphModel dx="981" dy="501" grid="1" gridSize="10" guides="1" tooltips="1" connect="1" arrows="1" fold="1" page="1" pageScale="1" pageWidth="850" pageHeight="1100" math="0" shadow="0">
      <root>
        <mxCell id="0" />
        <mxCell id="1" parent="0" />
        <mxCell id="H_mQaB0gBT5OgJ4qcJw0-1" value="" style="rounded=0;whiteSpace=wrap;html=1;" parent="1" vertex="1">
          <mxGeometry x="170" y="100" width="580" height="360" as="geometry" />
        </mxCell>
        <mxCell id="H_mQaB0gBT5OgJ4qcJw0-2" value="&lt;font style=&quot;font-size: 20px&quot;&gt;&lt;b&gt;&lt;font style=&quot;font-size: 20px&quot;&gt;Game/Main&lt;/font&gt;&lt;/b&gt;&lt;/font&gt;" style="text;html=1;resizable=0;autosize=1;align=center;verticalAlign=middle;points=[];fillColor=none;strokeColor=none;rounded=0;" parent="1" vertex="1">
          <mxGeometry x="170" y="120" width="120" height="20" as="geometry" />
        </mxCell>
        <mxCell id="H_mQaB0gBT5OgJ4qcJw0-3" value="" style="rounded=0;whiteSpace=wrap;html=1;" parent="1" vertex="1">
          <mxGeometry x="200" y="170" width="180" height="235" as="geometry" />
        </mxCell>
        <mxCell id="H_mQaB0gBT5OgJ4qcJw0-4" value="&lt;font style=&quot;font-size: 17px&quot;&gt;&lt;b&gt;&lt;font style=&quot;font-size: 17px&quot;&gt;Perform game setup&lt;/font&gt;&lt;/b&gt;&lt;/font&gt;" style="text;html=1;resizable=0;autosize=1;align=center;verticalAlign=middle;points=[];fillColor=none;strokeColor=none;rounded=0;" parent="1" vertex="1">
          <mxGeometry x="200" y="180" width="180" height="20" as="geometry" />
        </mxCell>
        <mxCell id="H_mQaB0gBT5OgJ4qcJw0-5" value="" style="rounded=0;whiteSpace=wrap;html=1;" parent="1" vertex="1">
          <mxGeometry x="500" y="170" width="180" height="235" as="geometry" />
        </mxCell>
        <mxCell id="H_mQaB0gBT5OgJ4qcJw0-6" value="&lt;b&gt;&lt;font style=&quot;font-size: 15px&quot;&gt;Run/launch game&lt;/font&gt;&lt;/b&gt;" style="text;html=1;resizable=0;autosize=1;align=center;verticalAlign=middle;points=[];fillColor=none;strokeColor=none;rounded=0;" parent="1" vertex="1">
          <mxGeometry x="520" y="180" width="140" height="20" as="geometry" />
        </mxCell>
        <mxCell id="H_mQaB0gBT5OgJ4qcJw0-8" value="" style="rounded=0;whiteSpace=wrap;html=1;" parent="1" vertex="1">
          <mxGeometry x="170" y="540" width="580" height="360" as="geometry" />
        </mxCell>
        <mxCell id="H_mQaB0gBT5OgJ4qcJw0-9" value="&lt;font style=&quot;font-size: 17px&quot;&gt;&lt;b&gt;&lt;font style=&quot;font-size: 17px&quot;&gt;Perform game setup&lt;/font&gt;&lt;/b&gt;&lt;/font&gt;" style="text;html=1;resizable=0;autosize=1;align=center;verticalAlign=middle;points=[];fillColor=none;strokeColor=none;rounded=0;" parent="1" vertex="1">
          <mxGeometry x="170" y="550" width="180" height="20" as="geometry" />
        </mxCell>
        <mxCell id="H_mQaB0gBT5OgJ4qcJw0-10" value="" style="rounded=0;whiteSpace=wrap;html=1;" parent="1" vertex="1">
          <mxGeometry x="170" y="980" width="580" height="360" as="geometry" />
        </mxCell>
        <mxCell id="H_mQaB0gBT5OgJ4qcJw0-11" value="&lt;b&gt;&lt;font style=&quot;font-size: 15px&quot;&gt;Run/launch game&lt;/font&gt;&lt;/b&gt;" style="text;html=1;resizable=0;autosize=1;align=center;verticalAlign=middle;points=[];fillColor=none;strokeColor=none;rounded=0;" parent="1" vertex="1">
          <mxGeometry x="180" y="990" width="140" height="20" as="geometry" />
        </mxCell>
        <mxCell id="H_mQaB0gBT5OgJ4qcJw0-12" value="" style="rounded=0;whiteSpace=wrap;html=1;" parent="1" vertex="1">
          <mxGeometry x="213" y="630" width="137" height="27.5" as="geometry" />
        </mxCell>
        <mxCell id="H_mQaB0gBT5OgJ4qcJw0-13" value="&lt;font style=&quot;font-size: 15px&quot;&gt;&lt;font style=&quot;font-size: 15px&quot;&gt;Setup window&lt;/font&gt;&lt;/font&gt;" style="text;html=1;resizable=0;autosize=1;align=center;verticalAlign=middle;points=[];fillColor=none;strokeColor=none;rounded=0;" parent="1" vertex="1">
          <mxGeometry x="220" y="633.75" width="110" height="20" as="geometry" />
        </mxCell>
        <mxCell id="H_mQaB0gBT5OgJ4qcJw0-14" value="" style="rounded=0;whiteSpace=wrap;html=1;" parent="1" vertex="1">
          <mxGeometry x="213" y="700" width="137" height="30" as="geometry" />
        </mxCell>
        <mxCell id="H_mQaB0gBT5OgJ4qcJw0-15" value="&lt;font style=&quot;font-size: 12px&quot;&gt;&lt;font style=&quot;font-size: 12px&quot;&gt;&lt;font style=&quot;font-size: 12px&quot;&gt;Setup board textures&lt;/font&gt;&lt;br&gt;&lt;/font&gt;&lt;/font&gt;" style="text;html=1;resizable=0;autosize=1;align=center;verticalAlign=middle;points=[];fillColor=none;strokeColor=none;rounded=0;" parent="1" vertex="1">
          <mxGeometry x="215" y="705" width="130" height="20" as="geometry" />
        </mxCell>
        <mxCell id="H_mQaB0gBT5OgJ4qcJw0-26" value="Reset game/end game" style="rounded=0;whiteSpace=wrap;html=1;" parent="1" vertex="1">
          <mxGeometry x="220" y="1230" width="135" height="30" as="geometry" />
        </mxCell>
        <mxCell id="Yq2IBy3ui0Q49Io5UnNa-5" value="" style="rounded=0;whiteSpace=wrap;html=1;" vertex="1" parent="1">
          <mxGeometry x="223" y="1030" width="127" height="170" as="geometry" />
        </mxCell>
        <mxCell id="Yq2IBy3ui0Q49Io5UnNa-6" value="&lt;b&gt;Updating/looping&lt;/b&gt;" style="text;html=1;resizable=0;autosize=1;align=center;verticalAlign=middle;points=[];fillColor=none;strokeColor=none;rounded=0;" vertex="1" parent="1">
          <mxGeometry x="223" y="1030" width="110" height="20" as="geometry" />
        </mxCell>
        <mxCell id="Yq2IBy3ui0Q49Io5UnNa-7" value="&lt;div&gt;Game status :&lt;/div&gt;&lt;div&gt;-who gotta play&lt;/div&gt;&lt;div&gt;-pieces position&lt;br&gt;&lt;/div&gt;" style="rounded=0;whiteSpace=wrap;html=1;" vertex="1" parent="1">
          <mxGeometry x="235" y="1060" width="105" height="50" as="geometry" />
        </mxCell>
        <mxCell id="Yq2IBy3ui0Q49Io5UnNa-8" value="&lt;div&gt;Action on event :&lt;/div&gt;&lt;div&gt;-click on a piece&lt;/div&gt;&lt;div&gt;-click on a square&lt;/div&gt;&lt;div&gt;-click on the dice&lt;br&gt;&lt;/div&gt;" style="rounded=0;whiteSpace=wrap;html=1;" vertex="1" parent="1">
          <mxGeometry x="235" y="1120" width="105" height="70" as="geometry" />
        </mxCell>
        <mxCell id="Yq2IBy3ui0Q49Io5UnNa-10" value="" style="rounded=0;whiteSpace=wrap;html=1;" vertex="1" parent="1">
          <mxGeometry x="210" y="770" width="140" height="30" as="geometry" />
        </mxCell>
        <mxCell id="Yq2IBy3ui0Q49Io5UnNa-11" value="Setup pieces" style="text;html=1;resizable=0;autosize=1;align=center;verticalAlign=middle;points=[];fillColor=none;strokeColor=none;rounded=0;" vertex="1" parent="1">
          <mxGeometry x="235" y="775" width="80" height="20" as="geometry" />
        </mxCell>
      </root>
    </mxGraphModel>
  </diagram>
</mxfile>
